<?xml version="1.0" encoding="utf-8"?>
<!-- Generator: Adobe Illustrator 26.0.0, SVG Export Plug-In . SVG Version: 6.00 Build 0)  -->
<svg version="1.1" id="Layer_1" xmlns="http://www.w3.org/2000/svg" xmlns:xlink="http://www.w3.org/1999/xlink" x="0px" y="0px"
	 viewBox="0 0 360 360" style="enable-background:new 0 0 360 360;" xml:space="preserve">
<style type="text/css">
	.st0{fill:#C06B2E;}
	.st1{fill:#F9C785;}
	.st2{fill:#4D2314;}
</style>
<g>
	<path class="st0" d="M270,0H90C40.3,0,0,40.3,0,90v180c0,49.7,40.3,90,90,90h180c49.7,0,90-40.3,90-90V90C360,40.3,319.7,0,270,0z
		 M336,270c0,36.4-29.6,66-66,66H90c-36.4,0-66-29.6-66-66V90c0-36.4,29.6-66,66-66h180c36.4,0,66,29.6,66,66V270z"/>
	<path class="st1" d="M90,328c-32,0-58-26-58-58V90c0-32,26-58,58-58h180c32,0,58,26,58,58v180c0,32-26,58-58,58H90z"/>
	<g>
		<path class="st2" d="M87.1,154.6c-0.6,0-1.2-0.1-1.9-0.4c-0.7-0.3-1.3-0.8-1.9-1.4c-0.6-0.6-1.1-1.3-1.5-2.2
			c-0.4-0.9-0.6-1.8-0.6-3v-6.6c-0.4-0.3-0.9-0.5-1.3-0.5c-0.3,0-0.7,0.2-1,0.5c-0.4,0.3-0.8,0.7-1.2,1.2c-0.4,0.5-0.9,1-1.3,1.6
			c-0.4,0.6-0.9,1.1-1.3,1.6c-2,2.1-3.6,3.1-4.8,3.1c-0.7,0-1.5-0.2-2.3-0.6c-0.8-0.4-1.6-1-2.4-1.9c-0.8-0.8-1.5-1.8-2.2-3.1
			c-0.7-1.2-1.3-2.7-1.7-4.3l-0.1-0.8c0-0.7,0.3-1.1,1-1.1c0.3,0,0.6,0.2,1,0.5c0.4,0.3,0.8,0.7,1.4,1.1c0.5,0.4,1.1,0.8,1.9,1.1
			c0.7,0.3,1.6,0.5,2.6,0.5h0.7c1.5-0.2,3-1.7,4.4-4.5c0.5-0.9,1-1.5,1.6-2c-0.1-0.3-0.4-0.7-0.9-1.3c-0.5-0.5-1.1-1-1.8-1.6
			c-0.7-0.5-1.6-1-2.6-1.3c-1-0.4-2-0.5-3.1-0.5l-2.6,0.2c-0.6,0-1.2-0.1-1.6-0.4c-0.4-0.3-0.6-0.7-0.6-1.2c0-0.8,0.3-2.2,1-4.4
			c1-3.3,2.4-5.1,4.3-5.6c0,0,1.3,0,4.1-0.1s6.8-0.1,12.2-0.1c1,0,2,0.4,3,1.1c1,0.8,1.7,2,2.1,3.7l0.2,1.7c0,0.3,0.1,2.8,0.1,7.4
			s0,11.4,0,20.3c0,1.1-0.3,1.9-0.8,2.4C88.5,154.4,87.9,154.6,87.1,154.6z M81.2,134.2v-14.3h-8.8c2.3,1.4,3.9,3,4.8,4.9
			c0.9,1.9,1.4,3.7,1.4,5.2c0,1.2-0.2,2.1-0.5,2.9C79.2,133,80.2,133.4,81.2,134.2z"/>
		<path class="st2" d="M114.4,134.4c-0.3-0.2-0.6-0.6-0.9-1.1c-1.4,1-2.5,2.1-3.3,3.3c-0.8,1.2-1.5,2.3-2,3.3
			c-0.5,1.1-0.9,2-1.1,2.8c-0.2,0.8-0.4,1.3-0.5,1.6c-0.4,0.9-0.8,1.5-1.2,1.7c-0.3,0.3-0.8,0.4-1.3,0.4c-1,0-1.9-0.3-2.7-0.9
			c-0.9-0.6-1.6-1.3-2.3-2.1c-0.7-0.8-1.2-1.6-1.6-2.4c-0.4-0.8-0.6-1.3-0.6-1.6c0.3-1.5,2.6-3.4,6.9-5.8c-0.7-0.2-1.3-0.3-1.9-0.3
			c-1.8,0-4,0.7-6.4,2.2l-0.8-0.2c-0.9-0.8-1.4-1.9-1.6-3.3c0-2.3,0.6-4.5,1.8-6.7c1.2-2.2,3-4.3,5.5-6.4c0.6-0.5,1.3-0.9,2-1.2
			c0.7-0.3,1.4-0.4,2-0.4c1,0,1.9,0.3,2.9,0.8c1,0.5,1.9,1.2,2.8,2c0.9,0.8,1.7,1.6,2.4,2.5c0.7,0.9,1.3,1.7,1.7,2.5v-5.8
			c0.2-0.7,0.6-1.1,1.3-1.4c0.7-0.3,1.4-0.4,1.9-0.4c0.5,0,1,0.1,1.6,0.3c0.6,0.2,1.1,0.5,1.6,1c0.5,0.5,1,1.1,1.4,1.8
			c0.4,0.8,0.6,1.7,0.7,2.9c0,0.4,0.1,1.7,0.1,3.7c0,2,0,4.8,0,8.4v0.8c3.5,2.4,5.3,5.7,5.3,9.8c0,5.5-1.2,9.6-3.6,12.5
			c-2.4,2.8-5.8,4.4-10.1,4.6h-0.3c-0.6,0-1.3,0-2-0.1c-0.8-0.1-1.5-0.3-2.3-0.5c-0.8-0.2-1.5-0.6-2.1-1c-0.7-0.4-1.2-0.9-1.6-1.5
			c-0.6-1.2-0.8-2.7-0.8-4.6c0-2.6,0.6-4,1.7-4c0.1,0,0.3,0,0.6,0.1c3.3,1.4,6.1,2.2,8.3,2.2c1.5,0,2.9-0.2,4-0.8
			c1.2-0.5,2.2-1.2,3-2c0.8-0.8,1.4-1.7,1.8-2.8c0.4-1,0.6-2.1,0.6-3.2c0-0.8-0.2-1.6-0.6-2.5c-0.4-0.9-0.9-1.7-1.5-2.4
			c-0.6-0.7-1.4-1.4-2.3-1.8c-0.9-0.5-1.9-0.7-2.9-0.7c-1.8,0-3.1,0.4-4,1.3c-0.9,0.8-1.3,1.7-1.3,2.6c0,0.7,0.1,1.1,0.3,1.1
			l0.1-0.1c1.3-1.2,2.6-1.9,4-1.9c0.6,0,1.3,0.1,2,0.4c0.7,0.3,1.3,0.6,1.9,1.1c0.6,0.5,1.1,1.1,1.4,1.9c0.4,0.8,0.6,1.6,0.6,2.6
			c0,0.6-0.1,1.2-0.4,1.8c-0.2,0.6-0.6,1.2-1.1,1.7c-0.5,0.5-1.1,1-1.9,1.3c-0.8,0.3-1.6,0.5-2.6,0.5c-0.1,0-0.3,0-0.6,0.1
			c-0.3,0.1-0.7,0-1.2-0.1c-0.5-0.1-1.1-0.4-1.8-0.9c-0.7-0.5-1.5-1.2-2.4-2.2c-0.7-0.8-1.3-1.8-1.6-2.7c-0.3-1-0.5-2-0.5-2.9
			c0-1.7,0.4-3.2,1.2-4.4c0.8-1.2,2.1-2.2,3.9-2.9V134.4z M108,131c0.6-0.4,1.2-0.7,1.7-1s1-0.5,1.5-0.8c-1.9-3.4-3.7-5-5.5-5
			c-0.7,0-1.4,0.4-2.1,1.1c0.9,0.7,1.7,1.4,2.4,2.3C106.7,128.4,107.4,129.5,108,131z"/>
		<path class="st2" d="M137.6,154.8c-0.6,0-1.2-0.1-1.9-0.5c-0.7-0.3-1.3-0.8-1.9-1.3s-1.1-1.3-1.5-2.2c-0.4-0.9-0.6-1.8-0.6-3
			v-28.6c0-0.9,0.9-1.5,2.7-1.8h0.6c1,0,2,0.4,3,1.2c1,0.8,1.7,2,2.1,3.7l0.2,1.7c0,0.3,0.1,2.8,0.1,7.4s0,11.4,0,20.3
			c0,1.1-0.3,1.9-0.8,2.4C139,154.5,138.3,154.8,137.6,154.8z"/>
		<path class="st2" d="M157.4,170.7c-1.7,0-3.3-0.4-4.8-1.1c-1.5-0.8-3-2.1-4.5-4c-0.6-0.7-1-1.4-1.4-1.9c-0.3-0.6-0.6-1.1-0.8-1.6
			c-0.2-0.5-0.4-1-0.4-1.6c-0.1-0.5-0.2-1.1-0.2-1.6l-0.1-1.1c-0.1-0.9-0.1-1.9-0.2-2.8s-0.1-1.9-0.2-2.8c0-0.5-0.1-3.5-0.2-8.9
			c-0.1-5.4-0.1-13.4,0-23.9c0-0.4,0.3-0.8,0.8-1.1c0.5-0.3,1.2-0.5,2.2-0.7h0.3c0.6,0,1.3,0.1,1.9,0.4c0.6,0.3,1.2,0.7,1.7,1.3
			c0.5,0.6,0.9,1.4,1.2,2.3c0.3,0.9,0.5,2.1,0.6,3.4l0.6,29.5c0,1-0.4,3.3-1.3,6.8c0,0.1-0.1,0.4-0.1,0.7c0,2.9,0.9,4.4,2.6,4.5
			c-0.2-0.6-0.3-1.1-0.3-1.6c0-1,0.2-1.8,0.5-2.5c0.4-0.7,0.8-1.2,1.3-1.6c0.5-0.4,1.1-0.6,1.7-0.8c0.6-0.1,1.1-0.2,1.5-0.2
			c1.7,0,2.9,0.5,3.8,1.4s1.3,2.2,1.3,3.8c0,0.7-0.2,1.4-0.5,2.1c-0.3,0.7-0.8,1.3-1.4,1.9c-0.6,0.6-1.4,1-2.4,1.3
			C159.7,170.6,158.6,170.7,157.4,170.7z"/>
		<path class="st2" d="M178,157.2c-0.2-0.2-0.6-0.4-1.1-0.7c-0.5-0.3-1.1-0.7-1.7-1.3l-1.3-0.7c-0.6-0.3-1.4-0.7-2.4-1.1
			c-0.9-0.4-1.9-0.9-2.9-1.3c-1-0.4-2-0.8-3-1c-1-0.3-1.9-0.4-2.6-0.4l-1.4,0.2c-1,0-1.9-0.7-2.7-2.2c-0.8-1.5-1.3-3.6-1.3-6.4
			c0-2.3,0.7-3.4,2.1-3.4c1.7,0.5,3.4,0.8,5,0.8c3,0,5.6-1,7.9-2.9c0.7-0.7,1.3-1.3,1.6-1.8c0.4-0.5,0.7-1,0.9-1.5
			c0.2-0.5,0.3-1,0.4-1.4s0.1-1,0.2-1.6l0.1-0.7c0-0.1,0-0.4-0.1-0.9c0-0.5-0.1-1-0.3-1.6c-0.2-0.6-0.5-1.3-0.9-2
			c-0.4-0.7-0.9-1.5-1.6-2.2c-1.2-1.1-2.2-1.8-3-2c-0.9-0.2-1.7-0.3-2.6-0.3c-0.7,0-1.4,0.1-2.1,0.2c-0.7,0.1-1.3,0.4-1.9,0.8
			c-0.6,0.4-1.1,0.8-1.5,1.4c-0.4,0.6-0.6,1.3-0.7,2.1c0,0.4,0.1,0.8,0.3,1.1h0.2c1.4-1.4,2.9-2,4.5-2c1.2,0,2.3,0.3,3.2,0.8
			c0.9,0.6,1.7,1.2,2.2,2c0.6,0.8,1,1.6,1.3,2.4c0.3,0.8,0.4,1.4,0.3,1.9l-0.1,0.8c-0.1,0.7-0.4,1.3-0.7,1.9
			c-0.3,0.6-0.7,1.1-1.1,1.5c-0.4,0.4-0.8,0.7-1.1,1s-0.6,0.4-0.8,0.4c-0.9,0.4-1.9,0.6-3.1,0.6c-1.2,0-2.2-0.2-3.2-0.6
			c-1-0.4-1.9-1-2.7-1.7c-0.8-0.7-1.5-1.6-2-2.5c-0.6-1-1-2-1.3-3l-0.1-0.8c0-0.2-0.1-0.5-0.1-0.8c0-0.3,0-0.5,0-0.9l0.1-1.4
			c0.1-1,0.4-2,0.9-3s1.2-1.8,2-2.6c0.9-0.8,2-1.4,3.2-1.8c1.3-0.5,2.8-0.7,4.5-0.7c0.2,0,0.7,0,1.4,0.1c0.7,0.1,1.5,0.3,2.4,0.6
			c0.9,0.3,1.8,0.9,2.8,1.6c1,0.7,1.8,1.7,2.6,3.1l0.7,1c0,0.1,0.2,0.3,0.3,0.6c0.2,0.3,0.4,0.8,0.5,1.3c0.2,0.6,0.3,1.2,0.5,2
			c0.1,0.7,0.2,1.6,0.2,2.4c0,1.7-0.1,3.4-0.4,5c-0.3,1.6-0.6,3.2-1.1,4.6c-0.5,1.4-1,2.7-1.6,3.7c-0.6,1.1-1.3,1.9-2.1,2.4l0.7,0.7
			c2.5,2.9,3.7,5.9,3.7,8.8c0,0.6,0,1-0.1,1.3C178.1,157,178,157.2,178,157.2z"/>
		<path class="st2" d="M204.1,154.7c-0.6,0-1.2-0.2-1.9-0.5c-0.7-0.3-1.3-0.8-1.9-1.3c-0.6-0.6-1.1-1.3-1.5-2.2
			c-0.4-0.9-0.6-1.8-0.6-2.9v-1.3l-1.3-0.4c-0.4-0.2-1.2-0.3-2.3-0.5c-1.1-0.2-2.6-0.3-4.4-0.5c-0.3,0-0.6-0.1-1-0.3
			c-0.3-0.1-0.7-0.4-1.1-0.8c-0.4-0.4-0.9-1-1.4-1.8s-1.2-1.8-1.9-3.1c-1.6-3-2.4-5.1-2.4-6.5c0-0.3,0.3-0.8,0.9-1.4
			c0.6-0.7,1.4-1.4,2.4-2.2s2-1.7,3.2-2.7c1.2-0.9,2.3-1.8,3.4-2.7c1.1-0.8,2.1-1.6,3-2.2s1.6-1.1,2-1.4h-13.7
			c-0.3,0-0.6-0.1-0.8-0.4c-0.2-0.2-0.4-0.5-0.4-0.8c0-0.3,0.1-0.6,0.4-0.8c0.2-0.2,0.5-0.4,0.8-0.4h17.9c1,0,2.1,0.4,3.1,1.2
			c1,0.8,1.7,2,2,3.7l0.2,1.7c0,0.3,0.1,2.8,0.1,7.4s0,11.4,0,20.3c0,1-0.3,1.8-0.8,2.3S204.9,154.7,204.1,154.7z M191.3,156.2
			c-1.4,0-2.6-0.5-3.5-1.4c-0.9-0.9-1.3-2-1.3-3.3c0.1-1.3,0.6-2.3,1.4-3.2c0.9-0.9,1.9-1.3,3.1-1.3l0.8,0.1
			c1.2,0.1,2.1,0.6,2.8,1.5c0.7,0.9,1.1,1.9,1.1,3.1c-0.1,1.4-0.6,2.5-1.4,3.4C193.7,155.8,192.6,156.2,191.3,156.2z M198.2,142.4
			v-11.5c-1.1,1-2,1.8-2.7,2.4c-0.7,0.6-1.3,1.1-1.8,1.5c-0.5,0.4-0.9,0.8-1.2,1c-0.3,0.3-0.6,0.7-1,1c-0.1,0.1-0.1,0.2-0.1,0.3
			c1.7,1.1,3.1,2.1,4.2,3C196.7,141,197.6,141.8,198.2,142.4z"/>
		<path class="st2" d="M253.2,154.6c-0.6,0-1.2-0.1-1.9-0.4c-0.7-0.3-1.3-0.8-1.9-1.4c-0.6-0.6-1.1-1.3-1.5-2.2
			c-0.4-0.9-0.6-1.8-0.6-3v-6.6c-0.4-0.3-0.9-0.5-1.3-0.5c-0.3,0-0.7,0.2-1,0.5c-0.4,0.3-0.8,0.7-1.2,1.2c-0.4,0.5-0.9,1-1.3,1.6
			c-0.4,0.6-0.9,1.1-1.3,1.6c-2,2.1-3.6,3.1-4.8,3.1c-0.7,0-1.5-0.2-2.3-0.6c-0.8-0.4-1.6-1-2.4-1.9c-0.8-0.8-1.5-1.8-2.2-3.1
			c-0.7-1.2-1.3-2.7-1.7-4.3l-0.1-0.8c0-0.7,0.3-1.1,1-1.1c0.3,0,0.6,0.2,1,0.5c0.4,0.3,0.8,0.7,1.4,1.1c0.5,0.4,1.1,0.8,1.9,1.1
			c0.7,0.3,1.6,0.5,2.6,0.5h0.7c1.5-0.2,3-1.7,4.4-4.5c0.5-0.9,1-1.5,1.6-2c-0.1-0.3-0.4-0.7-0.9-1.3c-0.5-0.5-1.1-1-1.8-1.6
			c-0.7-0.5-1.6-1-2.6-1.3c-1-0.4-2-0.5-3.1-0.5l-2.6,0.2c-0.6,0-1.2-0.1-1.6-0.4c-0.4-0.3-0.6-0.7-0.6-1.2c0-0.8,0.3-2.2,1-4.4
			c1-3.3,2.4-5.1,4.3-5.6c0,0,1.3,0,4.1-0.1s6.8-0.1,12.2-0.1c1,0,2,0.4,3,1.1c1,0.8,1.7,2,2.1,3.7l0.2,1.7c0,0.3,0.1,2.8,0.1,7.4
			s0,11.4,0,20.3c0,1.1-0.3,1.9-0.8,2.4C254.6,154.4,254,154.6,253.2,154.6z M247.3,134.2v-14.3h-8.8c2.3,1.4,3.9,3,4.8,4.9
			c0.9,1.9,1.4,3.7,1.4,5.2c0,1.2-0.2,2.1-0.5,2.9C245.3,133,246.3,133.4,247.3,134.2z"/>
		<path class="st2" d="M266,154.8c-0.6,0-1.2-0.1-1.9-0.5c-0.7-0.3-1.3-0.8-1.9-1.3s-1.1-1.3-1.5-2.2c-0.4-0.9-0.6-1.8-0.6-3v-28.6
			c0-0.9,0.9-1.5,2.7-1.8h0.6c1,0,2,0.4,3,1.2c1,0.8,1.7,2,2.1,3.7l0.2,1.7c0,0.3,0.1,2.8,0.1,7.4s0,11.4,0,20.3
			c0,1.1-0.3,1.9-0.8,2.4C267.4,154.5,266.8,154.8,266,154.8z"/>
		<path class="st2" d="M281.6,150.3c-0.7,0-1.6-0.1-2.5-0.2c-1-0.1-1.9-0.4-2.9-0.7c-0.9-0.3-1.8-0.8-2.6-1.3
			c-0.8-0.5-1.4-1.1-1.8-1.8c-0.5-1.3-0.8-2.8-0.8-4.7c0-0.7,0-1.3,0.1-2c0.1-0.6,0.2-1.2,0.4-1.7c0.2-0.5,0.4-0.9,0.7-1.2
			c0.3-0.3,0.6-0.5,1-0.5c0.2,0,0.5,0.1,0.8,0.2c3.9,2,7.3,2.9,10.1,2.9c1.8,0,3.4-0.3,4.8-0.9s2.5-1.4,3.5-2.3c0.9-1,1.7-2,2.2-3.3
			c0.5-1.2,0.8-2.5,0.8-3.8c0-1-0.2-2-0.6-3.1s-1-2-1.8-2.9c-0.8-0.8-1.6-1.5-2.6-2.1c-1-0.5-2.1-0.8-3.2-0.8
			c-2.2,0-3.8,0.5-4.8,1.4c-1.1,0.9-1.6,2-1.6,3.1c0,0.3,0,0.6,0.1,0.8s0.1,0.4,0.3,0.4l0.1-0.1c1.5-1.4,3-2,4.6-2
			c0.9,0,1.8,0.2,2.6,0.6c0.8,0.4,1.6,1,2.2,1.7c0.7,0.7,1.2,1.5,1.6,2.3c0.4,0.9,0.6,1.7,0.6,2.5c0,0.7-0.2,1.5-0.5,2.2
			c-0.3,0.7-0.8,1.4-1.4,2c-0.6,0.6-1.3,1.1-2.1,1.4c-0.8,0.4-1.8,0.5-2.9,0.5c-1.2,0-2.4-0.3-3.6-0.8c-1.1-0.6-2.2-1.3-3-2.2
			c-0.9-0.9-1.6-2-2.1-3.3s-0.8-2.6-0.8-4c0-0.9,0.1-1.7,0.2-2.4c0.2-0.7,0.3-1.2,0.5-1.5c0.1-0.3,0.4-0.7,0.8-1.3
			c0.4-0.6,1-1.2,1.7-1.9c0.8-0.6,1.8-1.2,3-1.6c1.2-0.5,2.7-0.7,4.5-0.7h0.8c1.8,0.2,3.4,0.7,4.8,1.6c1.3,0.8,2.4,1.9,3.3,3.1
			c0.9,1.2,1.5,2.5,1.9,4c0.4,1.5,0.6,2.9,0.6,4.4c0,3.2-0.4,6.1-1.2,8.6c-0.8,2.5-1.9,4.6-3.4,6.2c-1.5,1.7-3.2,2.9-5.3,3.8
			C286.5,149.9,284.1,150.3,281.6,150.3z"/>
		<path class="st2" d="M82.7,226.8c-0.4,0-0.9-0.1-1.6-0.3c-0.7-0.2-1.3-0.6-2-1.1c-0.6-0.5-1.2-1.2-1.7-2.1s-0.7-2-0.7-3.4v-27.2
			c-0.4-2.1-0.5-4-0.5-5.8c0-2.7,0.4-5,1.3-7.1c0.8-2,1.9-3.7,3.2-5.1c1.3-1.4,2.7-2.4,4.2-3.1c1.5-0.7,3-1,4.3-1
			c0.8,0,1.7,0.2,2.7,0.5c1,0.3,1.8,0.6,2.4,1l0.1,0.1c2.4,1.3,4.3,2.2,5.6,2.8c1.3,0.6,2.2,1,2.8,1.3l0.8,0.4
			c1,0.3,1.9,0.4,2.8,0.4c1,0,1.9-0.3,2.5-0.8c0.6-0.5,0.9-1.1,0.8-1.8l-0.1-0.8c-0.2,0-0.4,0.1-0.5,0.1c-0.2,0-0.3,0-0.5,0
			c-1.2,0-2.1-0.4-2.9-1.3c-0.8-0.9-1.2-2-1.2-3.4c0-0.6,0.1-1.2,0.4-1.8c0.2-0.6,0.6-1.1,1-1.7c0.5-0.5,1-0.9,1.6-1.2
			c0.6-0.3,1.4-0.5,2.2-0.5s1.7,0.2,2.5,0.6c0.8,0.4,1.5,1,2.1,1.7c0.6,0.7,1.1,1.6,1.5,2.5c0.4,0.9,0.6,1.9,0.6,3
			c0,1.2-0.2,2.4-0.7,3.5c-0.5,1.1-1.1,2.1-2,3s-1.8,1.5-3,2c-1.1,0.5-2.4,0.8-3.7,0.8c-1,0-2.1-0.2-3.2-0.7c-2.5-1-4.4-1.8-5.8-2.3
			s-2.5-0.9-3.2-1.2c-0.8-0.2-1.3-0.4-1.6-0.4c-0.3,0-0.7-0.1-1.1-0.1c-1.4,0-2.5,0.6-3.3,1.7s-1.5,2.7-2,4.5
			c-0.5,1.9-0.8,3.9-1,6.2c-0.2,2.3-0.3,4.6-0.3,6.8c0,0.4,0.1,3,0.1,7.7c0,4.7,0,11.5,0,20.5C85.4,225.8,84.5,226.8,82.7,226.8z"/>
		<path class="st2" d="M110.6,227.6c-0.5,0-1-0.1-1.6-0.3c-0.6-0.2-1.2-0.6-1.8-1c-0.6-0.5-1.1-1.1-1.5-1.8
			c-0.4-0.7-0.7-1.7-0.8-2.7c0-0.3-0.1-1.3-0.1-2.9c0-1.6,0-3.9,0-6.9c-0.9,0.8-1.7,1.6-2.5,2.4c-0.8,0.8-1.6,1.5-2.3,2.1
			c-0.8,0.6-1.5,1.2-2.2,1.5c-0.7,0.4-1.4,0.6-2.1,0.6c-0.7,0-1.4-0.1-2.1-0.3c-0.7-0.2-1.3-0.5-1.9-1c-0.6-0.4-1-1-1.4-1.6
			c-0.4-0.7-0.6-1.4-0.6-2.3v-22c0.2-1,1.3-1.6,3.2-1.7h20.3c0.3,0,0.6,0.1,0.8,0.4c0.2,0.2,0.3,0.5,0.3,0.8c0,0.3-0.1,0.6-0.3,0.8
			c-0.2,0.2-0.5,0.4-0.8,0.4h-16c0.4,0.6,0.7,1.5,1,2.5l0.2,1.7v10.9l6.7-6.2l1.5-1.3c1.4-0.3,2.5-0.5,3.2-0.5
			c0.8,0,1.4,0.1,1.9,0.3s0.8,0.5,1.1,1c0.3,0.4,0.4,0.9,0.5,1.5c0.1,0.6,0.1,1.2,0.1,1.8c0,7.1,0,12.4,0,16c0,3.6-0.1,5.5-0.1,5.7
			C113,226.8,112.1,227.6,110.6,227.6z"/>
		<path class="st2" d="M130.4,242.7c-1.7,0-3.3-0.4-4.8-1.1c-1.5-0.8-3-2.1-4.5-4c-0.6-0.7-1-1.4-1.4-1.9c-0.3-0.6-0.6-1.1-0.8-1.6
			c-0.2-0.5-0.4-1-0.4-1.6c-0.1-0.5-0.2-1.1-0.2-1.6l-0.1-1.1c-0.1-0.9-0.1-1.9-0.2-2.8s-0.1-1.9-0.2-2.8c0-0.5-0.1-3.5-0.2-8.9
			c-0.1-5.4-0.1-13.4,0-23.9c0-0.4,0.3-0.8,0.8-1.1c0.5-0.3,1.2-0.5,2.2-0.7h0.3c0.6,0,1.3,0.1,1.9,0.4c0.6,0.3,1.2,0.7,1.7,1.3
			c0.5,0.6,0.9,1.4,1.2,2.3c0.3,0.9,0.5,2.1,0.6,3.4l0.6,29.5c0,1-0.4,3.3-1.3,6.8c0,0.1-0.1,0.4-0.1,0.7c0,2.9,0.9,4.4,2.6,4.5
			c-0.2-0.6-0.3-1.1-0.3-1.6c0-1,0.2-1.8,0.5-2.5c0.4-0.7,0.8-1.2,1.3-1.6c0.5-0.4,1.1-0.6,1.7-0.8c0.6-0.1,1.1-0.2,1.5-0.2
			c1.7,0,2.9,0.5,3.8,1.4s1.3,2.2,1.3,3.8c0,0.7-0.2,1.4-0.5,2.1c-0.3,0.7-0.8,1.3-1.4,1.9c-0.6,0.6-1.4,1-2.4,1.3
			C132.7,242.6,131.6,242.7,130.4,242.7z"/>
		<path class="st2" d="M156.6,226.8c-0.6,0-1.2-0.2-1.9-0.5c-0.7-0.3-1.3-0.8-1.9-1.4c-0.6-0.6-1.1-1.3-1.5-2.2
			c-0.4-0.9-0.6-1.8-0.6-2.9v-7c-0.7-1.2-1.4-2.2-2.3-3c-0.8-0.8-1.7-1.5-2.6-2c-0.9-0.5-1.8-0.9-2.6-1.1c-0.9-0.2-1.7-0.4-2.4-0.4
			c-1.2,0-2.1,0.2-2.9,0.7c-0.7,0.5-1.1,0.9-1.1,1.3v0.1v0.1c0.6-0.2,1.4-0.2,2.2-0.2c1.2,0,2.4,0.2,3.6,0.7
			c1.2,0.5,2.2,1.1,3.2,1.9c0.9,0.8,1.7,1.7,2.2,2.8c0.6,1.1,0.8,2.2,0.8,3.5c0,1.4-0.3,2.8-0.9,3.9c-0.6,1.2-1.4,2.2-2.3,3
			c-0.9,0.8-1.9,1.5-3,2c-1.1,0.5-2,0.7-2.9,0.7c-1,0-2-0.2-3.2-0.7c-1.1-0.5-2.2-1.1-3.2-2.1c-1-0.9-1.9-2.1-2.6-3.5
			c-0.7-1.4-1-3.1-1-5c0-2.2,0.4-4.2,1.1-5.9c0.7-1.8,1.7-3.3,3-4.5c1.2-1.2,2.7-2.2,4.3-2.8c1.6-0.7,3.3-1,5.1-1
			c2.4,0,4.8,0.7,7.2,2l0.1,0.1v-11.6h-19.6c-0.3,0-0.6-0.1-0.8-0.4c-0.2-0.2-0.4-0.5-0.4-0.8c0-0.3,0.1-0.6,0.3-0.8
			c0.2-0.2,0.5-0.4,0.8-0.4l22.9-0.1c1,0,2.1,0.4,3.1,1.1c1,0.8,1.7,2,2,3.7l0.2,1.7c0,0.3,0.1,2.8,0.1,7.4s0,11.4,0,20.4
			c0,1-0.3,1.8-0.8,2.3C158,226.5,157.4,226.8,156.6,226.8z"/>
		<path class="st2" d="M184.5,226.7c-0.6,0-1.2-0.2-1.9-0.5c-0.7-0.3-1.3-0.8-1.9-1.3c-0.6-0.6-1.1-1.3-1.5-2.2
			c-0.4-0.9-0.6-1.8-0.6-2.9v-1.3l-1.3-0.4c-0.4-0.2-1.2-0.3-2.3-0.5c-1.1-0.2-2.6-0.3-4.4-0.5c-0.3,0-0.6-0.1-1-0.3
			c-0.3-0.1-0.7-0.4-1.1-0.8c-0.4-0.4-0.9-1-1.4-1.8s-1.2-1.8-1.9-3.1c-1.6-3-2.4-5.1-2.4-6.5c0-0.3,0.3-0.8,0.9-1.4
			c0.6-0.7,1.4-1.4,2.4-2.2s2-1.7,3.2-2.7c1.2-0.9,2.3-1.8,3.4-2.7c1.1-0.8,2.1-1.6,3-2.2s1.6-1.1,2-1.4H164c-0.3,0-0.6-0.1-0.8-0.4
			c-0.2-0.2-0.4-0.5-0.4-0.8c0-0.3,0.1-0.6,0.4-0.8c0.2-0.2,0.5-0.4,0.8-0.4h17.9c1,0,2.1,0.4,3.1,1.2c1,0.8,1.7,2,2,3.7l0.2,1.7
			c0,0.3,0.1,2.8,0.1,7.4s0,11.4,0,20.3c0,1-0.3,1.8-0.8,2.3S185.2,226.7,184.5,226.7z M171.6,228.2c-1.4,0-2.6-0.5-3.5-1.4
			c-0.9-0.9-1.3-2-1.3-3.3c0.1-1.3,0.6-2.3,1.4-3.2c0.9-0.9,1.9-1.3,3.1-1.3l0.8,0.1c1.2,0.1,2.1,0.6,2.8,1.5
			c0.7,0.9,1.1,1.9,1.1,3.1c-0.1,1.4-0.6,2.5-1.4,3.4C174,227.8,173,228.2,171.6,228.2z M178.6,214.4v-11.5c-1.1,1-2,1.8-2.7,2.4
			c-0.7,0.6-1.3,1.1-1.8,1.5c-0.5,0.4-0.9,0.8-1.2,1c-0.3,0.3-0.6,0.7-1,1c-0.1,0.1-0.1,0.2-0.1,0.3c1.7,1.1,3.1,2.1,4.2,3
			C177.1,213,178,213.8,178.6,214.4z"/>
		<path class="st2" d="M234.7,226.8c-0.6,0-1.2-0.2-1.9-0.5c-0.7-0.3-1.3-0.8-1.9-1.4c-0.6-0.6-1.1-1.3-1.5-2.2
			c-0.4-0.9-0.6-1.8-0.6-2.9v-7c-0.7-1.2-1.4-2.2-2.3-3c-0.8-0.8-1.7-1.5-2.6-2c-0.9-0.5-1.8-0.9-2.6-1.1c-0.9-0.2-1.7-0.4-2.4-0.4
			c-1.2,0-2.1,0.2-2.9,0.7c-0.7,0.5-1.1,0.9-1.1,1.3v0.1v0.1c0.6-0.2,1.4-0.2,2.2-0.2c1.2,0,2.4,0.2,3.6,0.7
			c1.2,0.5,2.2,1.1,3.2,1.9c0.9,0.8,1.7,1.7,2.2,2.8c0.6,1.1,0.8,2.2,0.8,3.5c0,1.4-0.3,2.8-0.9,3.9c-0.6,1.2-1.4,2.2-2.3,3
			c-0.9,0.8-1.9,1.5-3,2c-1.1,0.5-2,0.7-2.9,0.7c-1,0-2-0.2-3.2-0.7c-1.1-0.5-2.2-1.1-3.2-2.1c-1-0.9-1.9-2.1-2.6-3.5
			c-0.7-1.4-1-3.1-1-5c0-2.2,0.4-4.2,1.1-5.9c0.7-1.8,1.7-3.3,3-4.5c1.2-1.2,2.7-2.2,4.3-2.8c1.6-0.7,3.3-1,5.1-1
			c2.4,0,4.8,0.7,7.2,2l0.1,0.1v-11.6h-19.6c-0.3,0-0.6-0.1-0.8-0.4c-0.2-0.2-0.4-0.5-0.4-0.8c0-0.3,0.1-0.6,0.3-0.8
			c0.2-0.2,0.5-0.4,0.8-0.4l22.9-0.1c1,0,2.1,0.4,3.1,1.1c1,0.8,1.7,2,2,3.7l0.2,1.7c0,0.3,0.1,2.8,0.1,7.4s0,11.4,0,20.4
			c0,1-0.3,1.8-0.8,2.3C236.2,226.5,235.5,226.8,234.7,226.8z"/>
		<path class="st2" d="M247.6,226.8c-0.6,0-1.2-0.1-1.9-0.5c-0.7-0.3-1.3-0.8-1.9-1.3s-1.1-1.3-1.5-2.2c-0.4-0.9-0.6-1.8-0.6-3
			v-28.6c0-0.9,0.9-1.5,2.7-1.8h0.6c1,0,2,0.4,3,1.2c1,0.8,1.7,2,2.1,3.7l0.2,1.7c0,0.3,0.1,2.8,0.1,7.4s0,11.4,0,20.3
			c0,1.1-0.3,1.9-0.8,2.4C249,226.5,248.3,226.8,247.6,226.8z"/>
		<path class="st2" d="M263.7,226.8c-1,0-2-0.2-3.2-0.7c-1.2-0.5-2.2-1.2-3.2-2.1c-1-0.9-1.8-2.1-2.5-3.5c-0.7-1.4-1-3.1-1-5
			c0-1.6,0.2-3,0.6-4.4s1-2.6,1.7-3.7c0.7-1.1,1.5-2,2.4-2.8c0.9-0.8,1.9-1.4,2.9-1.9l-2.8-0.7c-0.6-0.1-1.1-0.4-1.6-0.8
			c-0.5-0.4-0.7-0.9-0.7-1.4v-0.5c0-1.1,0.2-2.2,0.5-3.3c0.4-1.1,0.8-2.1,1.3-3c0.5-0.9,1.1-1.6,1.7-2.2c0.6-0.6,1.2-1,1.8-1.2
			c0.1,0,5.2-0.1,15.2-0.1l0.8-0.1c0.5,0,1.1,0.1,1.6,0.3s1,0.5,1.5,0.9c0.5,0.4,0.9,0.9,1.3,1.5c0.4,0.6,0.7,1.4,0.9,2.2l0.2,1.7
			c0,0.3,0.1,2.8,0.1,7.3c0,4.6,0,11.3,0,20.2c0,1.1-0.3,1.9-0.8,2.4c-0.5,0.5-1.2,0.8-2,0.8c-0.6,0-1.3-0.2-2-0.5
			c-0.7-0.3-1.3-0.8-1.9-1.4c-0.6-0.6-1.1-1.3-1.4-2.2c-0.4-0.8-0.6-1.8-0.6-2.9v-6.8c-0.7-1.1-1.4-2.1-2.3-2.9
			c-0.8-0.8-1.7-1.5-2.6-2s-1.8-0.9-2.7-1.2c-0.9-0.2-1.7-0.4-2.4-0.4c-1.2,0-2.1,0.2-2.9,0.7c-0.7,0.5-1.1,0.9-1.1,1.4v0.1
			c0.7-0.2,1.4-0.2,2.2-0.2c1.2,0,2.4,0.2,3.6,0.7c1.2,0.5,2.2,1.1,3.2,1.9c0.9,0.8,1.7,1.7,2.2,2.8c0.6,1.1,0.8,2.2,0.8,3.5
			c0,1.4-0.3,2.8-0.9,3.9c-0.6,1.2-1.4,2.2-2.3,3c-0.9,0.8-1.9,1.5-3,2C265.5,226.5,264.5,226.8,263.7,226.8z M274.6,203.4v-11.6
			h-9.2c0.4,0.5,0.8,1.1,1.1,1.7c0.3,0.7,0.6,1.4,0.8,2.1c0.2,0.7,0.4,1.4,0.5,2.1c0.1,0.7,0.1,1.3,0.1,1.9v1.6
			C270.1,201.5,272.3,202.2,274.6,203.4z"/>
	</g>
</g>
</svg>
